<?xml version="1.0" encoding="UTF-8" standalone="no"?>
<svg xmlns="http://www.w3.org/2000/svg" xmlns:xlink="http://www.w3.org/1999/xlink" contentStyleType="text/css" height="780px" preserveAspectRatio="none" style="width:604px;height:780px;background:#FFFFFF;" version="1.1" viewBox="0 0 604 780" width="604px" zoomAndPan="magnify"><script xmlns=""/><defs/><g><!--class Questão--><g id="elem_Questão"><rect codeLine="1" fill="#F1F1F1" height="145.7813" id="Questão" rx="2.5" ry="2.5" style="stroke:#181818;stroke-width:0.5;" width="150" x="272" y="165"/><ellipse cx="313.55" cy="181" fill="#ADD1B2" rx="11" ry="11" style="stroke:#181818;stroke-width:1.0;"/><path d="M315.8938,176.6719 C314.9563,176.2344 314.3625,176.0938 313.4875,176.0938 C310.8625,176.0938 308.8625,178.1719 308.8625,180.8906 L308.8625,182.0156 C308.8625,184.5938 310.9719,186.4844 313.8625,186.4844 C315.0813,186.4844 316.2375,186.1875 316.9875,185.6406 C317.5656,185.2344 317.8938,184.7813 317.8938,184.3906 C317.8938,183.9375 317.5031,183.5469 317.0344,183.5469 C316.8156,183.5469 316.6125,183.625 316.425,183.8125 C315.9719,184.2969 315.9719,184.2969 315.7844,184.3906 C315.3625,184.6563 314.675,184.7813 313.9094,184.7813 C311.8625,184.7813 310.5656,183.6875 310.5656,181.9844 L310.5656,180.8906 C310.5656,179.1094 311.8156,177.7969 313.55,177.7969 C314.1281,177.7969 314.7375,177.9531 315.2063,178.2031 C315.6906,178.4844 315.8625,178.7031 315.9563,179.1094 C316.0188,179.5156 316.05,179.6406 316.1906,179.7656 C316.3313,179.9063 316.5656,180.0156 316.7844,180.0156 C317.05,180.0156 317.3156,179.875 317.4875,179.6563 C317.5969,179.5 317.6281,179.3125 317.6281,178.8906 L317.6281,177.4688 C317.6281,177.0313 317.6125,176.9063 317.5188,176.75 C317.3625,176.4844 317.0813,176.3438 316.7844,176.3438 C316.4875,176.3438 316.2844,176.4375 316.0656,176.75 L315.8938,176.6719 Z " fill="#000000"/><text fill="#000000" font-family="sans-serif" font-size="14" lengthAdjust="spacing" textLength="59" x="333.45" y="185.8467">Questão</text><line style="stroke:#181818;stroke-width:0.5;" x1="273" x2="421" y1="197" y2="197"/><rect fill="none" height="6" style="stroke:#C82930;stroke-width:1.0;" width="6" x="280" y="207.6484"/><text fill="#000000" font-family="sans-serif" font-size="14" lengthAdjust="spacing" textLength="42" x="292" y="213.9951">id: int</text><rect fill="none" height="6" style="stroke:#C82930;stroke-width:1.0;" width="6" x="280" y="223.9453"/><text fill="#000000" font-family="sans-serif" font-size="14" lengthAdjust="spacing" textLength="124" x="292" y="230.292">enunciado: string</text><rect fill="none" height="6" style="stroke:#C82930;stroke-width:1.0;" width="6" x="280" y="240.2422"/><text fill="#000000" font-family="sans-serif" font-size="14" lengthAdjust="spacing" textLength="112" x="292" y="246.5889">gabarito: string</text><rect fill="none" height="6" style="stroke:#C82930;stroke-width:1.0;" width="6" x="280" y="256.5391"/><text fill="#000000" font-family="sans-serif" font-size="14" lengthAdjust="spacing" textLength="85" x="292" y="262.8857">nivel: string</text><rect fill="none" height="6" style="stroke:#C82930;stroke-width:1.0;" width="6" x="280" y="272.8359"/><text fill="#000000" font-family="sans-serif" font-size="14" lengthAdjust="spacing" textLength="107" x="292" y="279.1826">materia: string</text><rect fill="none" height="6" style="stroke:#C82930;stroke-width:1.0;" width="6" x="280" y="289.1328"/><text fill="#000000" font-family="sans-serif" font-size="14" lengthAdjust="spacing" textLength="109" x="292" y="295.4795">imagem: string</text><line style="stroke:#181818;stroke-width:0.5;" x1="273" x2="421" y1="302.7813" y2="302.7813"/></g><!--class Simulado--><g id="elem_Simulado"><rect codeLine="10" fill="#F1F1F1" height="145.7813" id="Simulado" rx="2.5" ry="2.5" style="stroke:#181818;stroke-width:0.5;" width="168" x="264" y="388"/><ellipse cx="311.25" cy="404" fill="#ADD1B2" rx="11" ry="11" style="stroke:#181818;stroke-width:1.0;"/><path d="M313.5938,399.6719 C312.6563,399.2344 312.0625,399.0938 311.1875,399.0938 C308.5625,399.0938 306.5625,401.1719 306.5625,403.8906 L306.5625,405.0156 C306.5625,407.5938 308.6719,409.4844 311.5625,409.4844 C312.7813,409.4844 313.9375,409.1875 314.6875,408.6406 C315.2656,408.2344 315.5938,407.7813 315.5938,407.3906 C315.5938,406.9375 315.2031,406.5469 314.7344,406.5469 C314.5156,406.5469 314.3125,406.625 314.125,406.8125 C313.6719,407.2969 313.6719,407.2969 313.4844,407.3906 C313.0625,407.6563 312.375,407.7813 311.6094,407.7813 C309.5625,407.7813 308.2656,406.6875 308.2656,404.9844 L308.2656,403.8906 C308.2656,402.1094 309.5156,400.7969 311.25,400.7969 C311.8281,400.7969 312.4375,400.9531 312.9063,401.2031 C313.3906,401.4844 313.5625,401.7031 313.6563,402.1094 C313.7188,402.5156 313.75,402.6406 313.8906,402.7656 C314.0313,402.9063 314.2656,403.0156 314.4844,403.0156 C314.75,403.0156 315.0156,402.875 315.1875,402.6563 C315.2969,402.5 315.3281,402.3125 315.3281,401.8906 L315.3281,400.4688 C315.3281,400.0313 315.3125,399.9063 315.2188,399.75 C315.0625,399.4844 314.7813,399.3438 314.4844,399.3438 C314.1875,399.3438 313.9844,399.4375 313.7656,399.75 L313.5938,399.6719 Z " fill="#000000"/><text fill="#000000" font-family="sans-serif" font-size="14" lengthAdjust="spacing" textLength="65" x="331.75" y="408.8467">Simulado</text><line style="stroke:#181818;stroke-width:0.5;" x1="265" x2="431" y1="420" y2="420"/><rect fill="none" height="6" style="stroke:#C82930;stroke-width:1.0;" width="6" x="272" y="430.6484"/><text fill="#000000" font-family="sans-serif" font-size="14" lengthAdjust="spacing" textLength="92" x="284" y="436.9951">nome: string</text><rect fill="none" height="6" style="stroke:#C82930;stroke-width:1.0;" width="6" x="272" y="446.9453"/><text fill="#000000" font-family="sans-serif" font-size="14" lengthAdjust="spacing" textLength="132" x="284" y="453.292">data_criacao: date</text><rect fill="none" height="6" style="stroke:#C82930;stroke-width:1.0;" width="6" x="272" y="463.2422"/><text fill="#000000" font-family="sans-serif" font-size="14" lengthAdjust="spacing" textLength="142" x="284" y="469.5889">tempo_maximo: int</text><rect fill="none" height="6" style="stroke:#C82930;stroke-width:1.0;" width="6" x="272" y="479.5391"/><text fill="#000000" font-family="sans-serif" font-size="14" lengthAdjust="spacing" textLength="132" x="284" y="485.8857">num_questoes: int</text><rect fill="none" height="6" style="stroke:#C82930;stroke-width:1.0;" width="6" x="272" y="495.8359"/><text fill="#000000" font-family="sans-serif" font-size="14" lengthAdjust="spacing" textLength="125" x="284" y="502.1826">nota_maxima: int</text><rect fill="none" height="6" style="stroke:#C82930;stroke-width:1.0;" width="6" x="272" y="512.1328"/><text fill="#000000" font-family="sans-serif" font-size="14" lengthAdjust="spacing" textLength="116" x="284" y="518.4795">nota_obtida: int</text><line style="stroke:#181818;stroke-width:0.5;" x1="265" x2="431" y1="525.7813" y2="525.7813"/></g><!--class Aluno--><g id="elem_Aluno"><rect codeLine="19" fill="#F1F1F1" height="162.0781" id="Aluno" rx="2.5" ry="2.5" style="stroke:#181818;stroke-width:0.5;" width="192" x="107" y="611"/><ellipse cx="178.75" cy="627" fill="#ADD1B2" rx="11" ry="11" style="stroke:#181818;stroke-width:1.0;"/><path d="M181.0938,622.6719 C180.1563,622.2344 179.5625,622.0938 178.6875,622.0938 C176.0625,622.0938 174.0625,624.1719 174.0625,626.8906 L174.0625,628.0156 C174.0625,630.5938 176.1719,632.4844 179.0625,632.4844 C180.2813,632.4844 181.4375,632.1875 182.1875,631.6406 C182.7656,631.2344 183.0938,630.7813 183.0938,630.3906 C183.0938,629.9375 182.7031,629.5469 182.2344,629.5469 C182.0156,629.5469 181.8125,629.625 181.625,629.8125 C181.1719,630.2969 181.1719,630.2969 180.9844,630.3906 C180.5625,630.6563 179.875,630.7813 179.1094,630.7813 C177.0625,630.7813 175.7656,629.6875 175.7656,627.9844 L175.7656,626.8906 C175.7656,625.1094 177.0156,623.7969 178.75,623.7969 C179.3281,623.7969 179.9375,623.9531 180.4063,624.2031 C180.8906,624.4844 181.0625,624.7031 181.1563,625.1094 C181.2188,625.5156 181.25,625.6406 181.3906,625.7656 C181.5313,625.9063 181.7656,626.0156 181.9844,626.0156 C182.25,626.0156 182.5156,625.875 182.6875,625.6563 C182.7969,625.5 182.8281,625.3125 182.8281,624.8906 L182.8281,623.4688 C182.8281,623.0313 182.8125,622.9063 182.7188,622.75 C182.5625,622.4844 182.2813,622.3438 181.9844,622.3438 C181.6875,622.3438 181.4844,622.4375 181.2656,622.75 L181.0938,622.6719 Z " fill="#000000"/><text fill="#000000" font-family="sans-serif" font-size="14" lengthAdjust="spacing" textLength="40" x="199.25" y="631.8467">Aluno</text><line style="stroke:#181818;stroke-width:0.5;" x1="108" x2="298" y1="643" y2="643"/><rect fill="none" height="6" style="stroke:#C82930;stroke-width:1.0;" width="6" x="115" y="653.6484"/><text fill="#000000" font-family="sans-serif" font-size="14" lengthAdjust="spacing" textLength="92" x="127" y="659.9951">nome: string</text><rect fill="none" height="6" style="stroke:#C82930;stroke-width:1.0;" width="6" x="115" y="669.9453"/><text fill="#000000" font-family="sans-serif" font-size="14" lengthAdjust="spacing" textLength="90" x="127" y="676.292">email: string</text><rect fill="none" height="6" style="stroke:#C82930;stroke-width:1.0;" width="6" x="115" y="686.2422"/><text fill="#000000" font-family="sans-serif" font-size="14" lengthAdjust="spacing" textLength="93" x="127" y="692.5889">senha: string</text><rect fill="none" height="6" style="stroke:#C82930;stroke-width:1.0;" width="6" x="115" y="702.5391"/><text fill="#000000" font-family="sans-serif" font-size="14" lengthAdjust="spacing" textLength="86" x="127" y="708.8857">login: string</text><rect fill="none" height="6" style="stroke:#C82930;stroke-width:1.0;" width="6" x="115" y="718.8359"/><text fill="#000000" font-family="sans-serif" font-size="14" lengthAdjust="spacing" textLength="141" x="127" y="725.1826">historico_notas: list</text><rect fill="none" height="6" style="stroke:#C82930;stroke-width:1.0;" width="6" x="115" y="735.1328"/><text fill="#000000" font-family="sans-serif" font-size="14" lengthAdjust="spacing" textLength="162" x="127" y="741.4795">perfil_dificuldades: list</text><rect fill="none" height="6" style="stroke:#C82930;stroke-width:1.0;" width="6" x="115" y="751.4297"/><text fill="#000000" font-family="sans-serif" font-size="14" lengthAdjust="spacing" textLength="166" x="127" y="757.7764">questoes_favoritas: list</text><line style="stroke:#181818;stroke-width:0.5;" x1="108" x2="298" y1="765.0781" y2="765.0781"/></g><!--class Matéria--><g id="elem_Matéria"><rect codeLine="29" fill="#F1F1F1" height="64.2969" id="Matéria" rx="2.5" ry="2.5" style="stroke:#181818;stroke-width:0.5;" width="118" x="288" y="15.5"/><ellipse cx="317.4" cy="31.5" fill="#ADD1B2" rx="11" ry="11" style="stroke:#181818;stroke-width:1.0;"/><path d="M319.7438,27.1719 C318.8063,26.7344 318.2125,26.5938 317.3375,26.5938 C314.7125,26.5938 312.7125,28.6719 312.7125,31.3906 L312.7125,32.5156 C312.7125,35.0938 314.8219,36.9844 317.7125,36.9844 C318.9313,36.9844 320.0875,36.6875 320.8375,36.1406 C321.4156,35.7344 321.7438,35.2813 321.7438,34.8906 C321.7438,34.4375 321.3531,34.0469 320.8844,34.0469 C320.6656,34.0469 320.4625,34.125 320.275,34.3125 C319.8219,34.7969 319.8219,34.7969 319.6344,34.8906 C319.2125,35.1563 318.525,35.2813 317.7594,35.2813 C315.7125,35.2813 314.4156,34.1875 314.4156,32.4844 L314.4156,31.3906 C314.4156,29.6094 315.6656,28.2969 317.4,28.2969 C317.9781,28.2969 318.5875,28.4531 319.0563,28.7031 C319.5406,28.9844 319.7125,29.2031 319.8063,29.6094 C319.8688,30.0156 319.9,30.1406 320.0406,30.2656 C320.1813,30.4063 320.4156,30.5156 320.6344,30.5156 C320.9,30.5156 321.1656,30.375 321.3375,30.1563 C321.4469,30 321.4781,29.8125 321.4781,29.3906 L321.4781,27.9688 C321.4781,27.5313 321.4625,27.4063 321.3688,27.25 C321.2125,26.9844 320.9313,26.8438 320.6344,26.8438 C320.3375,26.8438 320.1344,26.9375 319.9156,27.25 L319.7438,27.1719 Z " fill="#000000"/><text fill="#000000" font-family="sans-serif" font-size="14" lengthAdjust="spacing" textLength="54" x="334.6" y="36.3467">Matéria</text><line style="stroke:#181818;stroke-width:0.5;" x1="289" x2="405" y1="47.5" y2="47.5"/><rect fill="none" height="6" style="stroke:#C82930;stroke-width:1.0;" width="6" x="296" y="58.1484"/><text fill="#000000" font-family="sans-serif" font-size="14" lengthAdjust="spacing" textLength="92" x="308" y="64.4951">nome: string</text><line style="stroke:#181818;stroke-width:0.5;" x1="289" x2="405" y1="71.7969" y2="71.7969"/></g><!--class Ranking--><g id="elem_Ranking"><rect codeLine="33" fill="#F1F1F1" height="96.8906" id="Ranking" rx="2.5" ry="2.5" style="stroke:#181818;stroke-width:0.5;" width="222" x="7" y="412.5"/><ellipse cx="84.75" cy="428.5" fill="#ADD1B2" rx="11" ry="11" style="stroke:#181818;stroke-width:1.0;"/><path d="M87.0938,424.1719 C86.1563,423.7344 85.5625,423.5938 84.6875,423.5938 C82.0625,423.5938 80.0625,425.6719 80.0625,428.3906 L80.0625,429.5156 C80.0625,432.0938 82.1719,433.9844 85.0625,433.9844 C86.2813,433.9844 87.4375,433.6875 88.1875,433.1406 C88.7656,432.7344 89.0938,432.2813 89.0938,431.8906 C89.0938,431.4375 88.7031,431.0469 88.2344,431.0469 C88.0156,431.0469 87.8125,431.125 87.625,431.3125 C87.1719,431.7969 87.1719,431.7969 86.9844,431.8906 C86.5625,432.1563 85.875,432.2813 85.1094,432.2813 C83.0625,432.2813 81.7656,431.1875 81.7656,429.4844 L81.7656,428.3906 C81.7656,426.6094 83.0156,425.2969 84.75,425.2969 C85.3281,425.2969 85.9375,425.4531 86.4063,425.7031 C86.8906,425.9844 87.0625,426.2031 87.1563,426.6094 C87.2188,427.0156 87.25,427.1406 87.3906,427.2656 C87.5313,427.4063 87.7656,427.5156 87.9844,427.5156 C88.25,427.5156 88.5156,427.375 88.6875,427.1563 C88.7969,427 88.8281,426.8125 88.8281,426.3906 L88.8281,424.9688 C88.8281,424.5313 88.8125,424.4063 88.7188,424.25 C88.5625,423.9844 88.2813,423.8438 87.9844,423.8438 C87.6875,423.8438 87.4844,423.9375 87.2656,424.25 L87.0938,424.1719 Z " fill="#000000"/><text fill="#000000" font-family="sans-serif" font-size="14" lengthAdjust="spacing" textLength="58" x="105.25" y="433.3467">Ranking</text><line style="stroke:#181818;stroke-width:0.5;" x1="8" x2="228" y1="444.5" y2="444.5"/><rect fill="none" height="6" style="stroke:#C82930;stroke-width:1.0;" width="6" x="15" y="455.1484"/><text fill="#000000" font-family="sans-serif" font-size="14" lengthAdjust="spacing" textLength="161" x="27" y="461.4951">data_atualizacao: date</text><rect fill="none" height="6" style="stroke:#C82930;stroke-width:1.0;" width="6" x="15" y="471.4453"/><text fill="#000000" font-family="sans-serif" font-size="14" lengthAdjust="spacing" textLength="196" x="27" y="477.792">num_posicoes_exibidas: int</text><rect fill="none" height="6" style="stroke:#C82930;stroke-width:1.0;" width="6" x="15" y="487.7422"/><text fill="#000000" font-family="sans-serif" font-size="14" lengthAdjust="spacing" textLength="190" x="27" y="494.0889">metodo_ordenacao: string</text><line style="stroke:#181818;stroke-width:0.5;" x1="8" x2="228" y1="501.3906" y2="501.3906"/></g><!--class SimuladoQuestão--><g id="elem_SimuladoQuestão"><rect codeLine="39" fill="#F1F1F1" height="80.5938" id="SimuladoQuestão" rx="2.5" ry="2.5" style="stroke:#181818;stroke-width:0.5;" width="156" x="441" y="7"/><ellipse cx="456" cy="23" fill="#ADD1B2" rx="11" ry="11" style="stroke:#181818;stroke-width:1.0;"/><path d="M458.3438,18.6719 C457.4063,18.2344 456.8125,18.0938 455.9375,18.0938 C453.3125,18.0938 451.3125,20.1719 451.3125,22.8906 L451.3125,24.0156 C451.3125,26.5938 453.4219,28.4844 456.3125,28.4844 C457.5313,28.4844 458.6875,28.1875 459.4375,27.6406 C460.0156,27.2344 460.3438,26.7813 460.3438,26.3906 C460.3438,25.9375 459.9531,25.5469 459.4844,25.5469 C459.2656,25.5469 459.0625,25.625 458.875,25.8125 C458.4219,26.2969 458.4219,26.2969 458.2344,26.3906 C457.8125,26.6563 457.125,26.7813 456.3594,26.7813 C454.3125,26.7813 453.0156,25.6875 453.0156,23.9844 L453.0156,22.8906 C453.0156,21.1094 454.2656,19.7969 456,19.7969 C456.5781,19.7969 457.1875,19.9531 457.6563,20.2031 C458.1406,20.4844 458.3125,20.7031 458.4063,21.1094 C458.4688,21.5156 458.5,21.6406 458.6406,21.7656 C458.7813,21.9063 459.0156,22.0156 459.2344,22.0156 C459.5,22.0156 459.7656,21.875 459.9375,21.6563 C460.0469,21.5 460.0781,21.3125 460.0781,20.8906 L460.0781,19.4688 C460.0781,19.0313 460.0625,18.9063 459.9688,18.75 C459.8125,18.4844 459.5313,18.3438 459.2344,18.3438 C458.9375,18.3438 458.7344,18.4375 458.5156,18.75 L458.3438,18.6719 Z " fill="#000000"/><text fill="#000000" font-family="sans-serif" font-size="14" lengthAdjust="spacing" textLength="124" x="470" y="27.8467">SimuladoQuestão</text><line style="stroke:#181818;stroke-width:0.5;" x1="442" x2="596" y1="39" y2="39"/><rect fill="none" height="6" style="stroke:#C82930;stroke-width:1.0;" width="6" x="449" y="49.6484"/><text fill="#000000" font-family="sans-serif" font-size="14" lengthAdjust="spacing" textLength="112" x="461" y="55.9951">simulado_id: int</text><rect fill="none" height="6" style="stroke:#C82930;stroke-width:1.0;" width="6" x="449" y="65.9453"/><text fill="#000000" font-family="sans-serif" font-size="14" lengthAdjust="spacing" textLength="106" x="461" y="72.292">questao_id: int</text><line style="stroke:#181818;stroke-width:0.5;" x1="442" x2="596" y1="79.5938" y2="79.5938"/></g><!--link Questão to Simulado--><g id="link_Questão_Simulado"><path codeLine="44" d="M289.451,311.01 C283.201,326.079 280.514,342.201 285,358 C287.871,368.111 292.061,378.203 296.937,387.888 " fill="none" id="Questão-Simulado" style="stroke:#181818;stroke-width:1.0;"/><text fill="#000000" font-family="sans-serif" font-size="13" lengthAdjust="spacing" textLength="77" x="286" y="354.0669">composição</text></g><!--reverse link Simulado to Questão--><g id="link_Simulado_Questão"><path codeLine="45" d="M367.936,374.684 C368.931,363.387 369.114,351.935 368,341 C367.011,331.287 365.504,321.134 363.743,311.157 " fill="none" id="Simulado-backto-Questão" style="stroke:#181818;stroke-width:1.0;"/><polygon fill="#181818" points="366.425,387.834,371.0839,382.3299,367.795,375.9125,363.1362,381.4166,366.425,387.834" style="stroke:#181818;stroke-width:1.0;"/><text fill="#000000" font-family="sans-serif" font-size="13" lengthAdjust="spacing" textLength="68" x="369" y="354.0669">agregação</text></g><!--reverse link Simulado to Aluno--><g id="link_Simulado_Aluno"><path codeLine="46" d="M295.331,545.181 C281.769,566.6 267.204,589.602 253.742,610.863 " fill="none" id="Simulado-backto-Aluno" style="stroke:#181818;stroke-width:1.0;"/><polygon fill="#181818" points="302.32,534.143,295.7309,537.0727,295.901,544.2818,302.4901,541.3521,302.32,534.143" style="stroke:#181818;stroke-width:1.0;"/><text fill="#000000" font-family="sans-serif" font-size="13" lengthAdjust="spacing" textLength="68" x="280" y="577.0669">agregação</text></g><!--link Matéria to Questão--><g id="link_Matéria_Questão"><path codeLine="47" d="M347,79.627 C347,102.737 347,135.217 347,164.673 " fill="none" id="Matéria-Questão" style="stroke:#181818;stroke-width:1.0;"/><text fill="#000000" font-family="sans-serif" font-size="13" lengthAdjust="spacing" textLength="77" x="348" y="131.0669">composição</text></g><!--reverse link Ranking to Aluno--><g id="link_Ranking_Aluno"><path codeLine="48" d="M140.339,522.183 C150.407,549.309 162.441,581.73 173.259,610.875 " fill="none" id="Ranking-backto-Aluno" style="stroke:#181818;stroke-width:1.0;"/><polygon fill="#181818" points="135.715,509.727,134.0532,516.744,139.8913,520.9768,141.5531,513.9598,135.715,509.727" style="stroke:#181818;stroke-width:1.0;"/><text fill="#000000" font-family="sans-serif" font-size="13" lengthAdjust="spacing" textLength="68" x="162" y="577.0669">agregação</text></g><!--SRC=[VP9DJiCm48NtEONNIBr0TXo01N00QsfFqX6sfzXELO4u3Gl4ENen9adZrb6BT_xcxyspZOEKrFE0AP- -MNqsIiw6RAievFc2OGY6m7AhKeuK-Xdti8L8UKK37T3Lo4F6I513yj2ZB-ohQSoav9Nyu6JMeYImnxhIGWPjfA41cIqtd7b6lsVjuKYUhzI7mUltSJt6T8rPkap9iAQypMJFjEXwT4FuHnHweDNQ2SDkjRJZdaADTYJA8XdMusnHw0JCeJt6Zfosr94Pd0MBLNXPIdTma0wNugBv2VBfLuowARjalK1u4x0aJVP27i3HnzhYqSiz9r4hO_58M_7fsbIFcIrhZXR3N7llUTSVBfsvhdxUj29SeBGfXPlDvQ-qoh0VXPr-9DGK_Y19fQ1Lq4ViuKRE_BXrGZ6lxb4DMgoxq-CF]--></g></svg>